# Blender v2.77 (sub 0) OBJ File: 'MinecraftPlayerRig.blend'
# www.blender.org
mtllib MinecraftPlayerRig_000023.mtl
o Player_Cube
v 0.348049 2.000128 -0.348049
v 0.348049 2.000128 0.348049
v -0.348049 2.000128 0.348049
v -0.348049 2.000128 -0.348049
v 0.348049 2.696226 -0.348048
v 0.348048 2.696226 0.348049
v -0.348049 2.696226 0.348049
v -0.348049 2.696226 -0.348049
v -0.330002 1.000128 0.165001
v -0.330002 1.000128 -0.165001
v 0.330002 1.000128 -0.165001
v 0.330002 1.000128 0.165001
v -0.330002 2.000128 0.165001
v -0.330002 2.000128 -0.165001
v 0.330002 2.000128 -0.165001
v 0.330002 2.000128 0.165001
v -0.330002 0.008252 -0.206715
v -0.330002 0.132092 -0.512599
v 0.000000 0.935167 -0.168556
v 0.000000 1.059007 0.137328
v -0.330002 0.935167 0.168556
v -0.330002 1.059007 -0.137328
v -0.000000 0.008252 0.206715
v -0.000000 0.132092 0.512599
v 0.000000 1.059007 -0.137328
v -0.000000 0.132092 -0.512599
v 0.000000 0.935167 0.168556
v -0.000000 0.008252 -0.206715
v 0.330002 0.132092 0.512599
v 0.330002 1.059007 0.137328
v 0.330002 0.008252 0.206715
v 0.330002 0.935167 -0.168556
v -0.660004 1.927196 -0.209487
v -0.660004 2.051036 0.096397
v -0.660004 1.000280 0.165784
v -0.660004 1.124121 0.471668
v -0.330002 1.124121 0.471668
v -0.330002 2.051036 0.096397
v -0.330002 1.000280 0.165784
v -0.330002 1.927196 -0.209487
v 0.660004 2.051034 -0.096400
v 0.660004 1.124113 -0.471657
v 0.660004 1.927199 0.209486
v 0.660004 1.000278 -0.165771
v 0.330002 1.000278 -0.165771
v 0.330002 1.124113 -0.471657
v 0.330002 1.927199 0.209486
v 0.330002 2.051034 -0.096400
v 0.373638 1.974538 -0.373638
v 0.373638 1.974538 0.373638
v -0.373638 1.974538 0.373638
v -0.373638 1.974538 -0.373638
v 0.373639 2.721816 -0.373638
v 0.373638 2.721816 0.373639
v -0.373638 2.721816 0.373638
v -0.373638 2.721816 -0.373638
v -0.330002 1.463738 -0.021851
v -0.330002 1.587578 0.284033
v -0.660004 1.463738 -0.021851
v -0.660004 1.587578 0.284033
v 0.660004 1.463738 0.021857
v 0.660004 1.587574 -0.284028
v 0.330002 1.463738 0.021857
v 0.330002 1.587574 -0.284028
v -0.000000 0.471709 -0.019079
v -0.000000 0.595550 -0.324963
v -0.330002 0.471709 -0.019079
v -0.330002 0.595550 -0.324963
v 0.330002 0.471709 0.019079
v 0.330002 0.595550 0.324963
v -0.000000 0.471709 0.019079
v -0.000000 0.595550 0.324963
vt 0.3750 1.0000
vt 0.2500 0.7500
vt 0.3750 0.7500
vt 0.1250 1.0000
vt 0.2500 0.7500
vt 0.2500 1.0000
vt 0.3750 0.7500
vt 0.2500 0.5000
vt 0.3750 0.5000
vt 0.1250 0.5000
vt 0.0000 0.7500
vt 0.0000 0.5000
vt 0.5000 0.7500
vt 0.2500 0.3750
vt 0.3125 0.0000
vt 0.3125 0.3750
vt 0.5000 0.3750
vt 0.6250 0.0000
vt 0.6250 0.3750
vt 0.4375 0.3750
vt 0.5000 0.0000
vt 0.4375 0.0000
vt 0.4375 0.3750
vt 0.5625 0.5000
vt 0.4375 0.5000
vt 0.4375 0.5000
vt 0.0625 0.1875
vt 0.0000 0.0000
vt 0.0625 0.0000
vt 0.2500 0.2031
vt 0.1875 0.0000
vt 0.1875 0.2031
vt 0.0625 0.5000
vt 0.1250 0.3750
vt 0.0625 0.3750
vt 0.1250 0.0000
vt 0.1250 0.1875
vt 0.1250 0.2031
vt 0.0625 0.0000
vt 0.0625 0.2031
vt 0.1250 0.5000
vt 0.0625 0.3750
vt 0.1250 0.3750
vt 0.1875 0.1875
vt 0.2500 0.0000
vt 0.2500 0.1875
vt 0.1250 0.0000
vt 0.1250 0.3750
vt 0.1875 0.5000
vt 0.1250 0.5000
vt 0.1875 0.0000
vt 0.1875 0.3750
vt 0.1250 0.5000
vt 0.1875 0.5000
vt 0.6875 0.1875
vt 0.6250 0.0000
vt 0.6250 0.1875
vt 0.7500 0.0000
vt 0.6875 0.0000
vt 0.6875 0.5000
vt 0.7500 0.3750
vt 0.6875 0.3750
vt 0.8125 0.5000
vt 0.7500 0.3750
vt 0.7500 0.5000
vt 0.8125 0.1875
vt 0.8750 0.0000
vt 0.8750 0.1875
vt 0.8125 0.1875
vt 0.7500 0.1875
vt 0.0000 0.2031
vt 0.0000 0.0000
vt 0.8125 0.1875
vt 0.7500 0.0000
vt 0.8125 0.0000
vt 0.6875 0.1875
vt 0.7500 0.1875
vt 0.7500 0.3750
vt 0.6875 0.5000
vt 0.6875 0.3750
vt 0.7500 0.3750
vt 0.8125 0.5000
vt 0.7500 0.5000
vt 0.8750 0.1875
vt 0.8750 0.0000
vt 0.6250 0.1875
vt 0.6875 0.0000
vt 0.8750 1.0000
vt 0.7500 0.7500
vt 0.8750 0.7500
vt 0.6250 1.0000
vt 0.7500 0.7500
vt 0.7500 1.0000
vt 0.8750 0.7500
vt 0.7500 0.5000
vt 0.8750 0.5000
vt 0.6250 0.5000
vt 0.5000 0.7500
vt 0.5000 0.5000
vt 1.0000 0.7500
vt 0.8125 0.3750
vt 0.8750 0.3750
vt 0.6250 0.3750
vt 0.6250 0.3750
vt 0.8750 0.3750
vt 0.8125 0.3750
vt 0.1875 0.3750
vt 0.0000 0.3750
vt 0.2500 0.3750
vt 0.1875 0.3750
vt 0.0000 0.3750
vt 0.2500 0.3750
vt 0.2500 1.0000
vt 0.1250 0.7500
vt 0.5000 0.5000
vt 0.2500 0.0000
vt 0.5625 0.3750
vt 0.3125 0.5000
vt 0.0000 0.1875
vt 0.2500 0.0000
vt 0.1250 0.5000
vt 0.0625 0.5000
vt 0.1875 0.3750
vt 0.1250 0.3750
vt 0.7500 0.5000
vt 0.8125 0.3750
vt 0.8125 0.0000
vt 0.8125 0.0000
vt 0.7500 0.5000
vt 0.8125 0.3750
vt 0.6250 0.0000
vt 0.7500 1.0000
vt 0.6250 0.7500
vt 1.0000 0.5000
vt 0.8125 0.3750
vn 0.0000 -1.0000 0.0000
vn 0.0000 1.0000 0.0000
vn 1.0000 -0.0000 0.0000
vn -0.0000 -0.0000 1.0000
vn -1.0000 -0.0000 -0.0000
vn 0.0000 0.0000 -1.0000
vn -0.0000 -0.3753 -0.9269
vn 0.0000 0.9269 -0.3753
vn 0.0000 -0.3753 0.9269
vn 0.0000 0.3753 0.9269
vn 0.0000 0.9269 0.3753
vn 0.0000 0.3753 -0.9269
vn -0.0000 -0.9269 -0.3753
vn 0.0000 -0.9269 0.3753
usemtl Player
s off
f 2/1/1 4/2/1 1/3/1
f 8/4/2 6/5/2 5/6/2
f 5/7/3 2/8/3 1/9/3
f 6/5/4 3/10/4 2/8/4
f 3/10/5 8/11/5 4/12/5
f 1/9/6 8/13/6 5/7/6
f 14/14/5 9/15/5 13/16/5
f 15/17/6 10/18/6 14/19/6
f 16/20/3 11/21/3 15/17/3
f 13/16/4 12/22/4 16/20/4
f 10/23/1 12/24/1 9/25/1
f 15/26/2 13/16/2 16/20/2
f 67/27/5 18/28/5 17/29/5
f 69/30/7 23/31/7 71/32/7
f 32/33/8 20/34/8 30/35/8
f 67/27/9 28/36/9 65/37/9
f 72/38/10 29/39/10 70/40/10
f 25/41/11 21/42/11 27/43/11
f 66/44/12 18/45/12 68/46/12
f 71/32/5 24/47/5 72/38/5
f 18/48/13 28/49/13 17/50/13
f 65/37/3 26/51/3 66/44/3
f 23/52/14 29/53/14 24/54/14
f 61/55/3 42/56/3 62/57/3
f 61/55/9 45/58/9 44/59/9
f 41/60/11 47/61/11 43/62/11
f 45/63/13 42/64/13 44/65/13
f 62/66/12 46/67/12 64/68/12
f 64/69/5 45/58/5 63/70/5
f 69/71/3 29/39/3 31/72/3
f 57/73/3 37/74/3 39/75/3
f 60/76/10 37/74/10 58/77/10
f 38/78/8 33/79/8 34/80/8
f 35/81/14 37/82/14 36/83/14
f 59/84/7 39/75/7 35/85/7
f 59/86/5 36/87/5 60/76/5
f 50/88/1 52/89/1 49/90/1
f 56/91/2 54/92/2 53/93/2
f 53/94/3 50/95/3 49/96/3
f 54/92/4 51/97/4 50/95/4
f 51/97/5 56/98/5 52/99/5
f 49/96/6 56/100/6 53/94/6
f 40/101/3 58/77/3 57/73/3
f 34/80/10 58/77/10 38/78/10
f 33/102/7 57/73/7 59/84/7
f 33/103/5 60/76/5 34/80/5
f 41/104/3 61/55/3 62/57/3
f 47/61/9 61/55/9 43/62/9
f 48/105/12 62/66/12 64/68/12
f 48/106/5 63/70/5 47/61/5
f 27/43/3 66/44/3 25/107/3
f 20/34/10 70/40/10 30/35/10
f 22/108/5 67/27/5 21/42/5
f 25/107/12 68/46/12 22/109/12
f 19/110/5 72/38/5 20/34/5
f 21/42/9 65/37/9 27/43/9
f 32/111/3 70/40/3 69/71/3
f 32/112/7 71/32/7 19/110/7
f 2/1/1 3/113/1 4/2/1
f 8/4/2 7/114/2 6/5/2
f 5/7/3 6/5/3 2/8/3
f 6/5/4 7/114/4 3/10/4
f 3/10/5 7/114/5 8/11/5
f 1/9/6 4/115/6 8/13/6
f 14/14/5 10/116/5 9/15/5
f 15/17/6 11/21/6 10/18/6
f 16/20/3 12/22/3 11/21/3
f 13/16/4 9/15/4 12/22/4
f 10/23/1 11/117/1 12/24/1
f 15/26/2 14/118/2 13/16/2
f 67/27/5 68/119/5 18/28/5
f 69/30/7 31/120/7 23/31/7
f 32/33/8 19/121/8 20/34/8
f 67/27/9 17/29/9 28/36/9
f 72/38/10 24/47/10 29/39/10
f 25/41/11 22/122/11 21/42/11
f 66/44/12 26/51/12 18/45/12
f 71/32/5 23/31/5 24/47/5
f 18/48/13 26/123/13 28/49/13
f 65/37/3 28/36/3 26/51/3
f 23/52/14 31/124/14 29/53/14
f 61/55/3 44/59/3 42/56/3
f 61/55/9 63/70/9 45/58/9
f 41/60/11 48/125/11 47/61/11
f 45/63/13 46/126/13 42/64/13
f 62/66/12 42/127/12 46/67/12
f 64/69/5 46/128/5 45/58/5
f 69/71/3 70/40/3 29/39/3
f 57/73/3 58/77/3 37/74/3
f 60/76/10 36/87/10 37/74/10
f 38/78/8 40/129/8 33/79/8
f 35/81/14 39/130/14 37/82/14
f 59/84/7 57/73/7 39/75/7
f 59/86/5 35/131/5 36/87/5
f 50/88/1 51/132/1 52/89/1
f 56/91/2 55/133/2 54/92/2
f 53/94/3 54/92/3 50/95/3
f 54/92/4 55/133/4 51/97/4
f 51/97/5 55/133/5 56/98/5
f 49/96/6 52/134/6 56/100/6
f 40/101/3 38/78/3 58/77/3
f 34/80/10 60/76/10 58/77/10
f 33/102/7 40/101/7 57/73/7
f 33/103/5 59/86/5 60/76/5
f 41/104/3 43/62/3 61/55/3
f 47/61/9 63/70/9 61/55/9
f 48/105/12 41/135/12 62/66/12
f 48/106/5 64/69/5 63/70/5
f 27/43/3 65/37/3 66/44/3
f 20/34/10 72/38/10 70/40/10
f 22/108/5 68/119/5 67/27/5
f 25/107/12 66/44/12 68/46/12
f 19/110/5 71/32/5 72/38/5
f 21/42/9 67/27/9 65/37/9
f 32/111/3 30/35/3 70/40/3
f 32/112/7 69/30/7 71/32/7
