# Blender v2.77 (sub 0) OBJ File: 'MinecraftPlayerRig.blend'
# www.blender.org
mtllib MinecraftPlayerRig_000010.mtl
o Player_Cube
v 0.348049 2.000128 -0.348049
v 0.348049 2.000128 0.348049
v -0.348049 2.000128 0.348049
v -0.348049 2.000128 -0.348049
v 0.348049 2.696226 -0.348048
v 0.348048 2.696226 0.348049
v -0.348049 2.696226 0.348049
v -0.348049 2.696226 -0.348049
v -0.330002 1.000128 0.165001
v -0.330002 1.000128 -0.165001
v 0.330002 1.000128 -0.165001
v 0.330002 1.000128 0.165001
v -0.330002 2.000128 0.165001
v -0.330002 2.000128 -0.165001
v 0.330002 2.000128 -0.165001
v 0.330002 2.000128 0.165001
v -0.330002 0.397508 0.794359
v -0.330002 0.164161 0.561012
v 0.000000 1.104614 -0.087252
v 0.000000 0.871268 0.146095
v -0.330002 1.104614 0.087252
v -0.330002 0.871268 -0.146095
v 0.000000 0.397508 -0.794359
v 0.000000 0.164161 -0.561012
v 0.000000 0.871268 -0.146095
v 0.000000 0.164161 0.561012
v 0.000000 1.104614 0.087252
v 0.000000 0.397508 0.794359
v 0.330002 0.164161 -0.561012
v 0.330002 0.871268 0.146095
v 0.330002 0.397508 -0.794359
v 0.330002 1.104614 -0.087252
v -0.660004 2.072669 -0.010128
v -0.660004 1.839322 0.223219
v -0.660004 1.365562 -0.717235
v -0.660004 1.132215 -0.483888
v -0.330002 1.132215 -0.483888
v -0.330002 1.839322 0.223219
v -0.330002 1.365562 -0.717235
v -0.330002 2.072669 -0.010128
v 0.660004 1.839319 -0.223219
v 0.660004 1.132224 0.483901
v 0.660004 2.072669 0.010124
v 0.660004 1.365574 0.717243
v 0.330002 1.365574 0.717243
v 0.330002 1.132224 0.483901
v 0.330002 2.072669 0.010124
v 0.330002 1.839319 -0.223219
v 0.373638 1.974538 -0.373638
v 0.373638 1.974538 0.373638
v -0.373638 1.974538 0.373638
v -0.373638 1.974538 -0.373638
v 0.373639 2.721816 -0.373638
v 0.373638 2.721816 0.373639
v -0.373638 2.721816 0.373638
v -0.373638 2.721816 -0.373638
v -0.330002 1.719115 -0.363681
v -0.330002 1.485769 -0.130335
v -0.660004 1.719115 -0.363681
v -0.660004 1.485769 -0.130335
v 0.660004 1.719122 0.363684
v 0.660004 1.485771 0.130341
v 0.330002 1.719122 0.363684
v 0.330002 1.485771 0.130341
v 0.000000 0.751061 0.440805
v 0.000000 0.517714 0.207459
v -0.330002 0.751061 0.440805
v -0.330002 0.517714 0.207459
v 0.330002 0.751061 -0.440805
v 0.330002 0.517714 -0.207459
v 0.000000 0.751061 -0.440805
v 0.000000 0.517714 -0.207459
vt 0.3750 1.0000
vt 0.2500 0.7500
vt 0.3750 0.7500
vt 0.1250 1.0000
vt 0.2500 0.7500
vt 0.2500 1.0000
vt 0.3750 0.7500
vt 0.2500 0.5000
vt 0.3750 0.5000
vt 0.1250 0.5000
vt 0.0000 0.7500
vt 0.0000 0.5000
vt 0.5000 0.7500
vt 0.2500 0.3750
vt 0.3125 0.0000
vt 0.3125 0.3750
vt 0.5000 0.3750
vt 0.6250 0.0000
vt 0.6250 0.3750
vt 0.4375 0.3750
vt 0.5000 0.0000
vt 0.4375 0.0000
vt 0.4375 0.3750
vt 0.5625 0.5000
vt 0.4375 0.5000
vt 0.4375 0.5000
vt 0.0000 0.1875
vt 0.0625 0.0000
vt 0.0625 0.1875
vt 0.2500 0.2031
vt 0.1875 0.0000
vt 0.1875 0.2031
vt 0.0625 0.5000
vt 0.1250 0.3750
vt 0.0625 0.3750
vt 0.1250 0.0000
vt 0.1250 0.1875
vt 0.1250 0.2031
vt 0.0625 0.0000
vt 0.0625 0.2031
vt 0.1250 0.5000
vt 0.0625 0.3750
vt 0.1250 0.3750
vt 0.1875 0.1875
vt 0.2500 0.0000
vt 0.2500 0.1875
vt 0.1250 0.0000
vt 0.1250 0.3750
vt 0.1875 0.5000
vt 0.1250 0.5000
vt 0.1875 0.0000
vt 0.1875 0.3750
vt 0.1250 0.5000
vt 0.1875 0.5000
vt 0.6875 0.1875
vt 0.6250 0.0000
vt 0.6250 0.1875
vt 0.7500 0.1875
vt 0.6875 0.0000
vt 0.6875 0.5000
vt 0.7500 0.3750
vt 0.6875 0.3750
vt 0.8125 0.3750
vt 0.7500 0.5000
vt 0.8125 0.5000
vt 0.8125 0.1875
vt 0.8750 0.0000
vt 0.8750 0.1875
vt 0.8125 0.0000
vt 0.7500 0.0000
vt 0.0000 0.0000
vt 0.0000 0.2031
vt 0.8125 0.1875
vt 0.7500 0.0000
vt 0.8125 0.0000
vt 0.6875 0.1875
vt 0.7500 0.1875
vt 0.7500 0.5000
vt 0.6875 0.3750
vt 0.7500 0.3750
vt 0.7500 0.3750
vt 0.8125 0.5000
vt 0.7500 0.5000
vt 0.8750 0.0000
vt 0.8750 0.1875
vt 0.6250 0.1875
vt 0.6875 0.0000
vt 0.8750 1.0000
vt 0.7500 0.7500
vt 0.8750 0.7500
vt 0.6250 1.0000
vt 0.7500 0.7500
vt 0.7500 1.0000
vt 0.8750 0.7500
vt 0.7500 0.5000
vt 0.8750 0.5000
vt 0.6250 0.5000
vt 0.5000 0.7500
vt 0.5000 0.5000
vt 1.0000 0.7500
vt 0.8125 0.3750
vt 0.8750 0.3750
vt 0.6250 0.3750
vt 0.8125 0.3750
vt 0.8750 0.3750
vt 0.8125 0.1875
vt 0.1875 0.3750
vt 0.0000 0.3750
vt 0.2500 0.3750
vt 0.0000 0.3750
vt 0.2500 0.3750
vt 0.1875 0.3750
vt 0.2500 1.0000
vt 0.1250 0.7500
vt 0.5000 0.5000
vt 0.2500 0.0000
vt 0.5625 0.3750
vt 0.3125 0.5000
vt 0.0000 0.0000
vt 0.2500 0.0000
vt 0.1250 0.5000
vt 0.0625 0.5000
vt 0.1875 0.3750
vt 0.1250 0.3750
vt 0.7500 0.5000
vt 0.7500 0.3750
vt 0.8125 0.0000
vt 0.6875 0.5000
vt 0.8125 0.3750
vt 0.6250 0.0000
vt 0.7500 1.0000
vt 0.6250 0.7500
vt 1.0000 0.5000
vt 0.6250 0.3750
vt 0.8125 0.3750
vn 0.0000 -1.0000 0.0000
vn 0.0000 1.0000 0.0000
vn 1.0000 -0.0000 0.0000
vn -0.0000 -0.0000 1.0000
vn -1.0000 -0.0000 -0.0000
vn 0.0000 0.0000 -1.0000
vn 0.0000 0.7071 -0.7071
vn 0.0000 0.7071 0.7071
vn 0.0000 -0.7071 0.7071
vn 0.0000 -0.7071 -0.7071
usemtl Player
s off
f 2/1/1 4/2/1 1/3/1
f 8/4/2 6/5/2 5/6/2
f 5/7/3 2/8/3 1/9/3
f 6/5/4 3/10/4 2/8/4
f 3/10/5 8/11/5 4/12/5
f 1/9/6 8/13/6 5/7/6
f 14/14/5 9/15/5 13/16/5
f 15/17/6 10/18/6 14/19/6
f 16/20/3 11/21/3 15/17/3
f 13/16/4 12/22/4 16/20/4
f 10/23/1 12/24/1 9/25/1
f 15/26/2 13/16/2 16/20/2
f 68/27/5 17/28/5 67/29/5
f 69/30/7 23/31/7 71/32/7
f 32/33/8 20/34/8 30/35/8
f 67/29/8 28/36/8 65/37/8
f 72/38/9 29/39/9 70/40/9
f 25/41/7 21/42/7 27/43/7
f 66/44/10 18/45/10 68/46/10
f 71/32/5 24/47/5 72/38/5
f 18/48/9 28/49/9 17/50/9
f 65/37/3 26/51/3 66/44/3
f 23/52/10 29/53/10 24/54/10
f 61/55/3 42/56/3 62/57/3
f 63/58/8 44/59/8 61/55/8
f 41/60/7 47/61/7 43/62/7
f 46/63/9 44/64/9 45/65/9
f 62/66/10 46/67/10 64/68/10
f 63/58/5 46/69/5 45/70/5
f 70/40/3 31/71/3 69/72/3
f 57/73/3 37/74/3 39/75/3
f 60/76/9 37/74/9 58/77/9
f 40/78/8 34/79/8 38/80/8
f 35/81/10 37/82/10 36/83/10
f 57/73/7 35/84/7 59/85/7
f 59/86/5 36/87/5 60/76/5
f 50/88/1 52/89/1 49/90/1
f 56/91/2 54/92/2 53/93/2
f 53/94/3 50/95/3 49/96/3
f 54/92/4 51/97/4 50/95/4
f 51/97/5 56/98/5 52/99/5
f 49/96/6 56/100/6 53/94/6
f 38/80/3 57/73/3 40/101/3
f 34/79/9 58/77/9 38/80/9
f 40/101/7 59/85/7 33/102/7
f 34/79/5 59/86/5 60/76/5
f 43/62/3 62/57/3 41/103/3
f 47/61/8 61/55/8 43/62/8
f 41/104/10 64/68/10 48/105/10
f 47/61/5 64/106/5 63/58/5
f 27/43/3 66/44/3 25/107/3
f 20/34/9 70/40/9 30/35/9
f 22/108/5 67/29/5 21/42/5
f 25/107/10 68/46/10 22/109/10
f 20/34/5 71/32/5 72/38/5
f 21/42/8 65/37/8 27/43/8
f 30/35/3 69/72/3 32/110/3
f 32/111/7 71/32/7 19/112/7
f 2/1/1 3/113/1 4/2/1
f 8/4/2 7/114/2 6/5/2
f 5/7/3 6/5/3 2/8/3
f 6/5/4 7/114/4 3/10/4
f 3/10/5 7/114/5 8/11/5
f 1/9/6 4/115/6 8/13/6
f 14/14/5 10/116/5 9/15/5
f 15/17/6 11/21/6 10/18/6
f 16/20/3 12/22/3 11/21/3
f 13/16/4 9/15/4 12/22/4
f 10/23/1 11/117/1 12/24/1
f 15/26/2 14/118/2 13/16/2
f 68/27/5 18/119/5 17/28/5
f 69/30/7 31/120/7 23/31/7
f 32/33/8 19/121/8 20/34/8
f 67/29/8 17/28/8 28/36/8
f 72/38/9 24/47/9 29/39/9
f 25/41/7 22/122/7 21/42/7
f 66/44/10 26/51/10 18/45/10
f 71/32/5 23/31/5 24/47/5
f 18/48/9 26/123/9 28/49/9
f 65/37/3 28/36/3 26/51/3
f 23/52/10 31/124/10 29/53/10
f 61/55/3 44/59/3 42/56/3
f 63/58/8 45/70/8 44/59/8
f 41/60/7 48/125/7 47/61/7
f 46/63/9 42/126/9 44/64/9
f 62/66/10 42/127/10 46/67/10
f 63/58/5 64/106/5 46/69/5
f 70/40/3 29/39/3 31/71/3
f 57/73/3 58/77/3 37/74/3
f 60/76/9 36/87/9 37/74/9
f 40/78/8 33/128/8 34/79/8
f 35/81/10 39/129/10 37/82/10
f 57/73/7 39/75/7 35/84/7
f 59/86/5 35/130/5 36/87/5
f 50/88/1 51/131/1 52/89/1
f 56/91/2 55/132/2 54/92/2
f 53/94/3 54/92/3 50/95/3
f 54/92/4 55/132/4 51/97/4
f 51/97/5 55/132/5 56/98/5
f 49/96/6 52/133/6 56/100/6
f 38/80/3 58/77/3 57/73/3
f 34/79/9 60/76/9 58/77/9
f 40/101/7 57/73/7 59/85/7
f 34/79/5 33/134/5 59/86/5
f 43/62/3 61/55/3 62/57/3
f 47/61/8 63/58/8 61/55/8
f 41/104/10 62/66/10 64/68/10
f 47/61/5 48/135/5 64/106/5
f 27/43/3 65/37/3 66/44/3
f 20/34/9 72/38/9 70/40/9
f 22/108/5 68/27/5 67/29/5
f 25/107/10 66/44/10 68/46/10
f 20/34/5 19/112/5 71/32/5
f 21/42/8 67/29/8 65/37/8
f 30/35/3 70/40/3 69/72/3
f 32/111/7 69/30/7 71/32/7
