# Blender v2.77 (sub 0) OBJ File: 'MinecraftPlayerRig.blend'
# www.blender.org
mtllib MinecraftPlayerRig_000012.mtl
o Player_Cube
v 0.348049 2.000128 -0.348049
v 0.348049 2.000128 0.348049
v -0.348049 2.000128 0.348049
v -0.348049 2.000128 -0.348049
v 0.348049 2.696226 -0.348048
v 0.348048 2.696226 0.348049
v -0.348049 2.696226 0.348049
v -0.348049 2.696226 -0.348049
v -0.330002 1.000128 0.165001
v -0.330002 1.000128 -0.165001
v 0.330002 1.000128 -0.165001
v 0.330002 1.000128 0.165001
v -0.330002 2.000128 0.165001
v -0.330002 2.000128 -0.165001
v 0.330002 2.000128 -0.165001
v 0.330002 2.000128 0.165001
v -0.330002 0.372726 0.776264
v -0.330002 0.146857 0.535672
v 0.000000 1.101789 -0.091818
v 0.000000 0.875920 0.148775
v -0.330002 1.101789 0.091818
v -0.330002 0.875920 -0.148775
v -0.000000 0.372726 -0.776264
v -0.000000 0.146857 -0.535672
v 0.000000 0.875920 -0.148775
v -0.000000 0.146857 0.535672
v 0.000000 1.101789 0.091818
v -0.000000 0.372726 0.776264
v 0.330002 0.146857 -0.535672
v 0.330002 0.875920 0.148775
v 0.330002 0.372726 -0.776264
v 0.330002 1.101789 -0.091818
v -0.660004 2.072238 -0.017165
v -0.660004 1.846370 0.223427
v -0.660004 1.343175 -0.701612
v -0.660004 1.117306 -0.461019
v -0.330002 1.117306 -0.461019
v -0.330002 1.846370 0.223427
v -0.330002 1.343175 -0.701612
v -0.330002 2.072238 -0.017165
v 0.660004 1.846366 -0.223427
v 0.660004 1.117314 0.461032
v 0.660004 2.072238 0.017161
v 0.660004 1.343187 0.701621
v 0.330002 1.343187 0.701621
v 0.330002 1.117314 0.461032
v 0.330002 2.072238 0.017161
v 0.330002 1.846366 -0.223427
v 0.373638 1.974538 -0.373638
v 0.373638 1.974538 0.373638
v -0.373638 1.974538 0.373638
v -0.373638 1.974538 -0.373638
v 0.373639 2.721816 -0.373638
v 0.373638 2.721816 0.373639
v -0.373638 2.721816 0.373638
v -0.373638 2.721816 -0.373638
v -0.330002 1.707707 -0.359388
v -0.330002 1.481838 -0.118796
v -0.660004 1.707707 -0.359388
v -0.660004 1.481838 -0.118796
v 0.660004 1.707713 0.359391
v 0.660004 1.481840 0.118803
v 0.330002 1.707713 0.359391
v 0.330002 1.481840 0.118803
v -0.000000 0.737257 0.434041
v -0.000000 0.511389 0.193448
v -0.330002 0.737257 0.434041
v -0.330002 0.511389 0.193448
v 0.330002 0.737257 -0.434041
v 0.330002 0.511389 -0.193448
v -0.000000 0.737257 -0.434041
v -0.000000 0.511389 -0.193448
vt 0.3750 1.0000
vt 0.2500 0.7500
vt 0.3750 0.7500
vt 0.1250 1.0000
vt 0.2500 0.7500
vt 0.2500 1.0000
vt 0.3750 0.7500
vt 0.2500 0.5000
vt 0.3750 0.5000
vt 0.1250 0.5000
vt 0.0000 0.7500
vt 0.0000 0.5000
vt 0.5000 0.7500
vt 0.2500 0.3750
vt 0.3125 0.0000
vt 0.3125 0.3750
vt 0.5000 0.3750
vt 0.6250 0.0000
vt 0.6250 0.3750
vt 0.4375 0.3750
vt 0.5000 0.0000
vt 0.4375 0.0000
vt 0.4375 0.3750
vt 0.5625 0.5000
vt 0.4375 0.5000
vt 0.4375 0.5000
vt 0.0000 0.1875
vt 0.0625 0.0000
vt 0.0625 0.1875
vt 0.2500 0.2031
vt 0.1875 0.0000
vt 0.1875 0.2031
vt 0.0625 0.5000
vt 0.1250 0.3750
vt 0.0625 0.3750
vt 0.1250 0.0000
vt 0.1250 0.1875
vt 0.1250 0.2031
vt 0.0625 0.0000
vt 0.0625 0.2031
vt 0.1250 0.5000
vt 0.0625 0.3750
vt 0.1250 0.3750
vt 0.1875 0.1875
vt 0.2500 0.0000
vt 0.2500 0.1875
vt 0.1250 0.0000
vt 0.1250 0.3750
vt 0.1875 0.5000
vt 0.1250 0.5000
vt 0.1875 0.0000
vt 0.1875 0.3750
vt 0.1250 0.5000
vt 0.1875 0.5000
vt 0.6250 0.1875
vt 0.6875 0.0000
vt 0.6250 0.0000
vt 0.7500 0.1875
vt 0.6875 0.1875
vt 0.6875 0.5000
vt 0.7500 0.3750
vt 0.6875 0.3750
vt 0.8125 0.3750
vt 0.7500 0.5000
vt 0.8125 0.5000
vt 0.8125 0.1875
vt 0.8750 0.0000
vt 0.8750 0.1875
vt 0.8125 0.1875
vt 0.7500 0.0000
vt 0.0000 0.2031
vt 0.0000 0.0000
vt 0.7500 0.1875
vt 0.8125 0.0000
vt 0.8125 0.1875
vt 0.6875 0.1875
vt 0.7500 0.0000
vt 0.7500 0.5000
vt 0.6875 0.3750
vt 0.7500 0.3750
vt 0.7500 0.3750
vt 0.8125 0.5000
vt 0.7500 0.5000
vt 0.8750 0.0000
vt 0.8750 0.1875
vt 0.6250 0.0000
vt 0.6875 0.0000
vt 0.8750 1.0000
vt 0.7500 0.7500
vt 0.8750 0.7500
vt 0.6250 1.0000
vt 0.7500 0.7500
vt 0.7500 1.0000
vt 0.8750 0.7500
vt 0.7500 0.5000
vt 0.8750 0.5000
vt 0.6250 0.5000
vt 0.5000 0.7500
vt 0.5000 0.5000
vt 1.0000 0.7500
vt 0.8125 0.3750
vt 0.8750 0.3750
vt 0.6250 0.3750
vt 0.6250 0.3750
vt 0.8125 0.3750
vt 0.8750 0.3750
vt 0.1875 0.3750
vt 0.2500 0.3750
vt 0.1875 0.3750
vt 0.0000 0.3750
vt 0.2500 0.3750
vt 0.2500 1.0000
vt 0.1250 0.7500
vt 0.5000 0.5000
vt 0.2500 0.0000
vt 0.5625 0.3750
vt 0.3125 0.5000
vt 0.0000 0.0000
vt 0.2500 0.0000
vt 0.1250 0.5000
vt 0.0625 0.5000
vt 0.1875 0.3750
vt 0.1250 0.3750
vt 0.7500 0.5000
vt 0.7500 0.3750
vt 0.8125 0.0000
vt 0.8125 0.0000
vt 0.6875 0.5000
vt 0.8125 0.3750
vt 0.6250 0.1875
vt 0.7500 1.0000
vt 0.6250 0.7500
vt 1.0000 0.5000
vt 0.8125 0.3750
vt 0.0000 0.3750
vn 0.0000 -1.0000 0.0000
vn 0.0000 1.0000 0.0000
vn 1.0000 -0.0000 0.0000
vn -0.0000 -0.0000 1.0000
vn -1.0000 -0.0000 -0.0000
vn 0.0000 0.0000 -1.0000
vn 0.0000 0.6844 -0.7291
vn 0.0000 0.7291 0.6844
vn 0.0000 0.6844 0.7291
vn 0.0000 -0.6844 0.7291
vn 0.0000 0.7291 -0.6844
vn 0.0000 -0.6844 -0.7291
vn 0.0000 -0.7291 0.6844
vn 0.0000 -0.7291 -0.6844
vn 0.0000 0.6845 0.7291
vn 0.0000 0.7291 -0.6845
vn 0.0000 -0.7291 0.6845
vn 0.0000 -0.6845 -0.7291
usemtl Player
s off
f 2/1/1 4/2/1 1/3/1
f 8/4/2 6/5/2 5/6/2
f 5/7/3 2/8/3 1/9/3
f 6/5/4 3/10/4 2/8/4
f 3/10/5 8/11/5 4/12/5
f 1/9/6 8/13/6 5/7/6
f 14/14/5 9/15/5 13/16/5
f 15/17/6 10/18/6 14/19/6
f 16/20/3 11/21/3 15/17/3
f 13/16/4 12/22/4 16/20/4
f 10/23/1 12/24/1 9/25/1
f 15/26/2 13/16/2 16/20/2
f 68/27/5 17/28/5 67/29/5
f 69/30/7 23/31/7 71/32/7
f 32/33/8 20/34/8 30/35/8
f 67/29/9 28/36/9 65/37/9
f 72/38/10 29/39/10 70/40/10
f 25/41/11 21/42/11 27/43/11
f 66/44/12 18/45/12 68/46/12
f 71/32/5 24/47/5 72/38/5
f 18/48/13 28/49/13 17/50/13
f 65/37/3 26/51/3 66/44/3
f 23/52/14 29/53/14 24/54/14
f 62/55/3 44/56/3 42/57/3
f 63/58/15 44/56/15 61/59/15
f 41/60/16 47/61/16 43/62/16
f 46/63/17 44/64/17 45/65/17
f 62/66/18 46/67/18 64/68/18
f 64/69/5 45/70/5 63/58/5
f 69/71/3 29/39/3 31/72/3
f 58/73/3 39/74/3 57/75/3
f 60/76/10 37/77/10 58/73/10
f 40/78/8 34/79/8 38/80/8
f 35/81/14 37/82/14 36/83/14
f 57/75/7 35/84/7 59/85/7
f 60/76/5 35/86/5 36/87/5
f 50/88/1 52/89/1 49/90/1
f 56/91/2 54/92/2 53/93/2
f 53/94/3 50/95/3 49/96/3
f 54/92/4 51/97/4 50/95/4
f 51/97/5 56/98/5 52/99/5
f 49/96/6 56/100/6 53/94/6
f 38/80/3 57/75/3 40/101/3
f 34/79/10 58/73/10 38/80/10
f 40/101/7 59/85/7 33/102/7
f 33/103/5 60/76/5 34/79/5
f 43/62/3 62/55/3 41/104/3
f 47/61/15 61/59/15 43/62/15
f 41/105/18 64/68/18 48/106/18
f 47/61/5 64/69/5 63/58/5
f 27/43/3 66/44/3 25/107/3
f 20/34/10 70/40/10 30/35/10
f 21/42/5 68/27/5 67/29/5
f 25/107/12 68/46/12 22/108/12
f 19/109/5 72/38/5 20/34/5
f 21/42/9 65/37/9 27/43/9
f 30/35/3 69/71/3 32/110/3
f 32/111/7 71/32/7 19/109/7
f 2/1/1 3/112/1 4/2/1
f 8/4/2 7/113/2 6/5/2
f 5/7/3 6/5/3 2/8/3
f 6/5/4 7/113/4 3/10/4
f 3/10/5 7/113/5 8/11/5
f 1/9/6 4/114/6 8/13/6
f 14/14/5 10/115/5 9/15/5
f 15/17/6 11/21/6 10/18/6
f 16/20/3 12/22/3 11/21/3
f 13/16/4 9/15/4 12/22/4
f 10/23/1 11/116/1 12/24/1
f 15/26/2 14/117/2 13/16/2
f 68/27/5 18/118/5 17/28/5
f 69/30/7 31/119/7 23/31/7
f 32/33/8 19/120/8 20/34/8
f 67/29/9 17/28/9 28/36/9
f 72/38/10 24/47/10 29/39/10
f 25/41/11 22/121/11 21/42/11
f 66/44/12 26/51/12 18/45/12
f 71/32/5 23/31/5 24/47/5
f 18/48/13 26/122/13 28/49/13
f 65/37/3 28/36/3 26/51/3
f 23/52/14 31/123/14 29/53/14
f 62/55/3 61/59/3 44/56/3
f 63/58/15 45/70/15 44/56/15
f 41/60/16 48/124/16 47/61/16
f 46/63/17 42/125/17 44/64/17
f 62/66/18 42/126/18 46/67/18
f 64/69/5 46/127/5 45/70/5
f 69/71/3 70/40/3 29/39/3
f 58/73/3 37/77/3 39/74/3
f 60/76/10 36/87/10 37/77/10
f 40/78/8 33/128/8 34/79/8
f 35/81/14 39/129/14 37/82/14
f 57/75/7 39/74/7 35/84/7
f 60/76/5 59/130/5 35/86/5
f 50/88/1 51/131/1 52/89/1
f 56/91/2 55/132/2 54/92/2
f 53/94/3 54/92/3 50/95/3
f 54/92/4 55/132/4 51/97/4
f 51/97/5 55/132/5 56/98/5
f 49/96/6 52/133/6 56/100/6
f 38/80/3 58/73/3 57/75/3
f 34/79/10 60/76/10 58/73/10
f 40/101/7 57/75/7 59/85/7
f 33/103/5 59/130/5 60/76/5
f 43/62/3 61/59/3 62/55/3
f 47/61/15 63/58/15 61/59/15
f 41/105/18 62/66/18 64/68/18
f 47/61/5 48/134/5 64/69/5
f 27/43/3 65/37/3 66/44/3
f 20/34/10 72/38/10 70/40/10
f 21/42/5 22/135/5 68/27/5
f 25/107/12 66/44/12 68/46/12
f 19/109/5 71/32/5 72/38/5
f 21/42/9 67/29/9 65/37/9
f 30/35/3 70/40/3 69/71/3
f 32/111/7 69/30/7 71/32/7
