# Blender v2.77 (sub 0) OBJ File: 'grasscube.blend'
# www.blender.org
mtllib untitled.mtl
o Cube
v 0.485723 -0.485723 -0.485723
v 0.485723 -0.485723 0.485723
v -0.485723 -0.485723 0.485723
v -0.485723 -0.485723 -0.485723
v 0.485723 0.485723 -0.485723
v 0.485723 0.485723 0.485723
v -0.485723 0.485723 0.485723
v -0.485723 0.485723 -0.485723
vt 0.9952 0.9934
vt 0.5048 0.5003
vt 0.9965 0.5016
vt 0.0013 0.0075
vt 0.4925 0.4987
vt 0.0013 0.4987
vt 0.5035 0.9986
vt 0.0028 0.4952
vt 0.5048 0.4965
vt 0.5035 0.9986
vt 0.0028 0.4952
vt 0.5048 0.4965
vt 0.5035 0.9986
vt 0.0028 0.4952
vt 0.5048 0.4965
vt 0.0019 0.4960
vt 0.5043 0.9978
vt 0.0022 0.9981
vt 0.5035 0.9921
vt 0.4925 0.0075
vt 0.0014 0.9972
vt 0.0014 0.9972
vt 0.0014 0.9972
vt 0.5040 0.4957
vn 0.0000 -1.0000 0.0000
vn 0.0000 1.0000 0.0000
vn 1.0000 -0.0000 0.0000
vn -0.0000 -0.0000 1.0000
vn -1.0000 -0.0000 -0.0000
vn 0.0000 0.0000 -1.0000
usemtl Material
s off
f 2/1/1 4/2/1 1/3/1
f 5/4/2 7/5/2 6/6/2
f 5/7/3 2/8/3 1/9/3
f 6/10/4 3/11/4 2/12/4
f 7/13/5 4/14/5 3/15/5
f 1/16/6 8/17/6 5/18/6
f 2/1/1 3/19/1 4/2/1
f 5/4/2 8/20/2 7/5/2
f 5/7/3 6/21/3 2/8/3
f 6/10/4 7/22/4 3/11/4
f 7/13/5 8/23/5 4/14/5
f 1/16/6 4/24/6 8/17/6
